# xmcd CD database file
#
# Track frame offsets:
#	150
#	16753
#	33484
#	53855
#	68859
#	89039
#	103423
#	120024
#	135115
#	150651
#	166407
#	180585
#
# Disc length: 2584 seconds
#
# Revision: 0
# Processed by: cddbd v1.5.2PL0 Copyright (c) Steve Scherf et al.
# Submitted via: CDex 1.70beta3
#
DISCID=920a160c
DTITLE=MJR Trio - Jazzで奏でる山下達郎作品集
DYEAR=2004
DGENRE=Jazz
TTITLE0=クリスマスイブ
TTITLE1=DOWN TOWN
TTITLE2=アトムの子
TTITLE3=踊ろよ、フィッシュ
TTITLE4=Endless Game
TTITLE5=さよなら夏の日
TTITLE6=僕の中の少年
TTITLE7=忘れないで
TTITLE8=Get Back In Love
TTITLE9=Donut Song
TTITLE10=ラッキーガールに花束を
TTITLE11=パレード
EXTD=YEAR: 2004
EXTT0=
EXTT1=
EXTT2=
EXTT3=
EXTT4=
EXTT5=
EXTT6=
EXTT7=
EXTT8=
EXTT9=
EXTT10=
EXTT11=
PLAYORDER=
